<svg width="1858" height="1063" viewBox="0 0 1858 1063" fill="none" xmlns="http://www.w3.org/2000/svg">
<path d="M526.796 462.734L317.37 0.800781H208.469L1.50759 458.84L0.0292969 462.734H115.829L156.729 364.896H367.632L408.532 462.734H526.796V462.734ZM331.66 279.226H193.193L262.673 114.215L331.66 279.226Z" fill="black"/>
<path d="M748.58 462.991L898.125 106.355H794.377L695.5 341.189L600.033 106.355H488.979L638.094 462.991H748.58Z" fill="black"/>
<path d="M1219.72 140.468C1190 114.158 1147.63 101.004 1092.59 101.004C1064.34 101.004 1036.09 104.902 1009.3 112.21C982.508 119.518 959.128 130.236 939.645 143.878L937.697 145.34L976.663 221.344L979.098 219.395C991.275 209.651 1006.37 201.856 1024.4 196.009C1041.93 190.163 1060.44 187.239 1078.95 187.239C1105.25 187.239 1124.73 193.086 1137.89 204.292C1150.06 215.01 1156.88 231.088 1157.37 251.064H1078.95C1027.32 251.064 988.353 260.808 963.512 279.809C938.184 298.81 925.52 325.606 925.52 358.736C925.52 379.686 930.877 398.687 941.593 415.252C952.309 431.817 967.895 444.972 987.866 454.229C1007.84 463.486 1031.7 468.358 1058.98 468.358C1107.69 468.358 1142.76 454.229 1163.21 425.483V462.998H1264.04V259.833C1264.04 207.215 1248.94 166.777 1219.72 140.468ZM1129.61 382.609C1116.45 390.405 1101.36 394.302 1084.79 394.302C1067.75 394.302 1054.11 390.405 1044.37 383.584C1034.63 376.276 1030.24 367.019 1030.24 354.839C1030.24 329.017 1049.72 316.349 1090.15 316.349H1156.88V348.992C1151.52 363.608 1142.27 374.814 1129.61 382.609Z" fill="black"/>
<path fill-rule="evenodd" clip-rule="evenodd" d="M0.0293017 567.035H111.083V946.309H462.388V1057.36L111.083 1057.36V1057.49H0.0293017V1057.36L0.0292969 946.309L0.0293017 567.035Z" fill="black"/>
<path d="M818.856 734.858C789.144 708.549 746.768 695.395 691.728 695.395C663.478 695.395 635.227 699.292 608.438 706.6C581.648 713.908 558.269 724.627 538.785 738.269L536.837 739.73L575.803 815.734L578.239 813.785C590.416 804.041 605.515 796.246 623.537 790.4C641.072 784.553 659.581 781.63 678.09 781.63C704.392 781.63 723.875 787.476 737.027 798.682C749.204 809.401 756.023 825.478 756.51 845.454H678.09C626.46 845.454 587.493 855.198 562.652 874.199C537.324 893.2 524.66 919.996 524.66 953.126C524.66 974.076 530.018 993.077 540.734 1009.64C551.45 1026.21 567.036 1039.36 587.006 1048.62C606.977 1057.88 630.843 1062.75 658.12 1062.75C706.828 1062.75 741.897 1048.62 762.355 1019.87V1057.39H863.18V854.224C863.18 801.605 848.568 761.167 818.856 734.858ZM728.746 976.999C715.595 984.795 700.496 988.692 683.935 988.692C666.887 988.692 653.249 984.795 643.507 977.974C633.766 970.666 629.382 961.409 629.382 949.229C629.382 923.407 648.865 910.739 689.293 910.739H756.51V943.382C750.665 957.998 741.41 969.204 728.746 976.999Z" fill="black"/>
<path d="M1238.96 718.288C1211.68 703.185 1181.49 695.389 1148.36 695.389C1105.5 695.389 1070.92 708.544 1045.1 733.879V567.254H937.945V1056.9H1040.72V1020.84C1066.05 1048.13 1102.58 1062.26 1148.36 1062.26C1181.49 1062.26 1211.68 1054.46 1238.96 1039.36C1266.24 1024.25 1287.67 1002.33 1302.77 975.046C1318.35 947.762 1326.15 915.119 1326.15 878.579C1326.15 842.038 1318.35 809.883 1302.77 782.112C1287.18 755.316 1265.75 733.391 1238.96 718.288ZM1130.83 784.548C1156.16 784.548 1177.1 793.318 1193.17 810.37C1209.25 827.422 1217.53 850.808 1217.53 879.553C1217.53 908.298 1209.25 931.684 1193.17 948.737C1177.1 965.789 1156.16 974.559 1130.83 974.559C1105.5 974.559 1084.56 965.789 1068.48 948.737C1052.41 931.684 1044.13 908.298 1044.13 879.553C1044.13 850.808 1052.41 827.422 1068.48 810.37C1084.56 793.318 1105.5 784.548 1130.83 784.548Z" fill="black"/>
<path d="M1665.68 886.379C1652.04 871.763 1635.48 861.532 1616.97 856.173C1598.47 850.813 1575.09 845.454 1546.35 840.582C1521.02 836.684 1502.02 832.787 1490.82 828.402C1480.11 824.504 1474.75 817.683 1474.75 807.939C1474.75 799.169 1479.62 792.349 1489.85 786.989C1500.08 781.143 1516.15 778.22 1537.58 778.22C1573.62 778.22 1607.23 786.989 1637.43 804.041L1639.87 805.503L1675.91 728.037L1673.96 726.576C1657.89 716.832 1636.95 709.036 1612.1 703.677C1587.26 698.318 1562.42 695.395 1537.58 695.395C1503.97 695.395 1474.26 700.267 1449.42 710.011C1424.58 719.755 1405.1 733.397 1391.94 750.936C1378.79 768.475 1371.97 788.938 1371.97 811.837C1371.97 839.12 1379.28 860.07 1393.41 875.174C1407.53 889.79 1424.09 900.021 1443.09 905.868C1461.6 911.714 1485.95 916.586 1514.69 920.971C1538.55 923.894 1556.58 927.792 1568.27 931.69C1578.98 935.587 1584.34 941.921 1584.34 950.691C1584.34 970.179 1563.4 979.923 1522.48 979.923C1501.54 979.923 1479.62 977 1458.19 970.666C1436.27 964.332 1417.27 956.537 1402.17 946.306L1399.74 944.844L1363.69 1022.8L1365.64 1024.26C1382.2 1035.46 1405.1 1044.72 1432.86 1051.54C1460.62 1058.85 1489.85 1062.26 1519.07 1062.26C1553.65 1062.26 1583.85 1057.39 1609.18 1048.13C1634.51 1038.88 1653.99 1025.23 1667.63 1007.69C1680.78 990.154 1687.6 970.179 1687.6 947.767C1686.63 921.945 1679.32 900.996 1665.68 886.379Z" fill="black"/>
<path d="M1857.15 950.633H1749.99V1057.82H1857.15V950.633Z" fill="#E84142"/>
</svg>
